<svg width="24" height="24" viewBox="0 0 24 24" fill="none" xmlns="http://www.w3.org/2000/svg">
<path d="M23.5604 10.5115L19.5604 5.71082C19.2791 5.37324 18.8976 5.18359 18.4998 5.18359C18.1021 5.18359 17.7206 5.37324 17.4393 5.71082C17.158 6.04841 17 6.50626 17 6.98367C17 7.46109 17.158 7.91894 17.4393 8.25652L20.3101 11.702C20.3283 11.7238 20.3385 11.7535 20.3385 11.7844C20.3385 11.8153 20.3283 11.8449 20.3101 11.8668L17.516 15.2202C17.233 15.5425 17.0598 15.9794 17.0299 16.4462C17 16.9131 17.1155 17.3766 17.3541 17.747C17.4881 17.9373 17.6535 18.0922 17.8399 18.2018C18.0263 18.3114 18.2296 18.3734 18.437 18.3838C18.6443 18.3942 18.8513 18.3529 19.0447 18.2624C19.238 18.1718 19.4137 18.0341 19.5604 17.858L23.5604 13.0572C23.8417 12.7197 23.9997 12.2618 23.9997 11.7844C23.9997 11.307 23.8417 10.8491 23.5604 10.5115Z" fill="#F1EBEA"/>
<path d="M6.56039 5.71101C6.42114 5.5438 6.25581 5.41116 6.07384 5.32067C5.89186 5.23017 5.69682 5.18359 5.49984 5.18359C5.30287 5.18359 5.10782 5.23017 4.92585 5.32067C4.74387 5.41116 4.57854 5.5438 4.43929 5.71101L0.439292 10.5117C0.158018 10.8493 0 11.3072 0 11.7846C0 12.262 0.158018 12.7198 0.439292 13.0574L4.43929 17.8581C4.58604 18.0343 4.76165 18.172 4.95503 18.2625C5.14841 18.3531 5.35534 18.3944 5.56272 18.384C5.77011 18.3736 5.97343 18.3116 6.15982 18.202C6.34621 18.0924 6.51162 17.9375 6.64557 17.7472C6.88416 17.3768 6.99969 16.9133 6.96979 16.4464C6.93989 15.9796 6.76667 15.5427 6.48371 15.2204L3.68958 11.867C3.67138 11.8451 3.66115 11.8155 3.66115 11.7846C3.66115 11.7537 3.67138 11.724 3.68958 11.7022L6.56039 8.25671C6.69971 8.08959 6.81023 7.89116 6.88563 7.67276C6.96103 7.45436 6.99984 7.22027 6.99984 6.98386C6.99984 6.74745 6.96103 6.51336 6.88563 6.29496C6.81023 6.07656 6.69971 5.87813 6.56039 5.71101Z" fill="#F1EBEA"/>
<path d="M12.666 1.16458L8.42357 21.5315C8.28962 22.1745 8.61538 22.8261 9.15117 22.9869L10.121 23.2779C10.6568 23.4387 11.1998 23.0477 11.3337 22.4046L15.5762 2.03776C15.7101 1.39471 15.3844 0.743087 14.8486 0.582325L13.8787 0.29132C13.3429 0.130558 12.8 0.521529 12.666 1.16458Z" fill="#F1EBEA"/>
</svg>
